<?xml version="1.0" standalone="no"?>
<!DOCTYPE svg PUBLIC "-//W3C//DTD SVG 20010904//EN"
 "http://www.w3.org/TR/2001/REC-SVG-20010904/DTD/svg10.dtd">
<svg version="1.0" xmlns="http://www.w3.org/2000/svg"
 width="1024.000000pt" height="1024.000000pt" viewBox="0 0 1024.000000 1024.000000"
 preserveAspectRatio="xMidYMid meet">

<g transform="translate(0.000000,1024.000000) scale(0.100000,-0.100000)"
fill="#000000" stroke="none">
<path d="M6362 6853 c-10 -4 -10 -8 0 -21 10 -12 10 -16 1 -19 -7 -3 -13 -11
-13 -19 0 -11 4 -10 19 4 10 10 14 21 10 27 -15 16 -10 28 6 15 9 -7 15 -8 15
-2 0 12 -21 21 -38 15z"/>
<path d="M6436 6845 c-3 -9 -1 -24 5 -33 9 -14 10 -13 5 7 -5 22 -4 23 13 5
10 -11 14 -20 10 -22 -5 -2 -9 -8 -9 -13 0 -6 5 -7 12 -3 7 5 8 3 4 -5 -5 -7
-15 -10 -23 -6 -12 4 -13 2 -5 -8 9 -11 7 -13 -8 -12 -11 1 -26 8 -33 15 -10
12 -9 12 5 1 15 -11 17 -10 15 8 -2 27 -43 23 -74 -8 -28 -27 -40 -22 -23 9 6
12 9 24 7 27 -3 2 -8 -5 -12 -17 -4 -12 -12 -19 -19 -17 -7 3 -13 -1 -13 -8 0
-8 5 -13 10 -12 5 1 11 -5 12 -14 2 -9 -4 -16 -11 -16 -8 0 -14 4 -14 8 0 4
-12 1 -27 -7 -25 -12 -29 -12 -39 1 -14 19 -20 19 -27 1 -4 -11 -1 -13 11 -9
15 6 15 5 3 -11 -8 -9 -19 -15 -26 -12 -6 2 -12 -2 -12 -10 0 -7 4 -11 8 -8 4
2 10 0 13 -5 4 -5 -1 -8 -10 -7 -20 3 -34 25 -27 43 11 30 -14 9 -66 -53 -7
-8 -3 -18 10 -30 10 -9 19 -22 19 -28 0 -6 -5 -4 -10 4 -5 8 -10 11 -10 5 0
-5 -7 3 -15 19 -12 22 -12 32 -4 42 6 8 9 15 5 15 -11 2 -46 1 -51 -1 -3 -1
-8 -3 -12 -4 -5 -1 -21 -10 -38 -20 -16 -9 -22 -15 -11 -11 12 3 8 -5 -14 -25
-18 -17 -29 -34 -24 -41 4 -8 3 -9 -5 -5 -6 4 -9 12 -5 17 8 13 -16 40 -29 32
-6 -3 -7 -1 -3 6 4 6 13 8 19 4 33 -20 48 -4 26 27 -9 13 -10 12 -5 -2 3 -10
1 -18 -4 -18 -6 0 -10 4 -10 10 0 5 -7 6 -17 3 -11 -4 -14 -3 -9 5 4 7 2 12
-4 12 -7 0 -10 -7 -7 -15 4 -8 2 -17 -3 -20 -6 -4 -10 -1 -10 5 0 6 -5 8 -11
4 -7 -4 -2 -12 14 -23 15 -8 29 -21 32 -29 3 -8 -9 -4 -28 9 l-32 23 20 -24
c18 -21 18 -23 2 -17 -10 4 -21 7 -23 7 -2 0 -4 15 -5 33 0 28 -15 80 -19 67
-7 -24 -7 -39 1 -34 5 3 9 1 9 -4 0 -16 -38 -20 -58 -6 -11 7 -25 27 -32 44
-7 17 -15 29 -17 26 -11 -11 43 -87 81 -114 74 -53 81 -53 498 -50 212 2 389
6 392 9 9 8 -4 39 -16 39 -5 0 -6 -5 -2 -11 4 -7 -1 -10 -12 -7 -13 2 -19 12
-19 30 -1 25 0 25 22 11 21 -14 23 -14 17 0 -3 9 -9 16 -12 15 -4 -1 -17 3
-29 10 -16 9 -23 9 -23 2 0 -6 -4 -9 -9 -6 -5 3 -7 15 -4 26 5 17 8 18 22 8
10 -8 10 -5 -3 10 -20 23 -27 27 -25 15 3 -18 -2 -33 -10 -33 -5 0 -7 8 -4 19
3 12 -5 25 -21 39 -28 21 -34 34 -13 26 8 -3 14 1 14 9 0 8 -9 13 -21 11 -12
-1 -20 -7 -18 -13 1 -6 -5 -11 -13 -11 -8 0 -15 -5 -15 -11 0 -5 5 -7 12 -3 7
5 8 3 3 -5 -14 -23 -30 8 -30 56 0 35 -5 48 -21 60 -19 12 -22 12 -28 -2z
m-390 -200 c-10 -15 -11 -26 -4 -33 6 -6 6 -12 -3 -17 -7 -5 -10 -4 -6 2 4 6
0 13 -7 16 -9 4 -17 -1 -19 -11 -3 -12 -5 -11 -6 6 -1 13 5 22 14 22 8 0 15 8
15 18 0 22 9 33 22 26 5 -3 2 -16 -6 -29z m214 26 c0 -6 -4 -13 -10 -16 -5 -3
-10 1 -10 9 0 9 5 16 10 16 6 0 10 -4 10 -9z m117 -7 c-3 -3 -12 -4 -19 -1 -8
3 -5 6 6 6 11 1 17 -2 13 -5z m-213 -12 c3 -5 -1 -9 -9 -9 -8 0 -12 4 -9 9 3
4 7 8 9 8 2 0 6 -4 9 -8z m131 -42 c3 -6 -1 -7 -9 -4 -18 7 -21 14 -7 14 6 0
13 -4 16 -10z"/>
<path d="M6265 6830 c-3 -6 1 -7 9 -4 18 7 21 14 7 14 -6 0 -13 -4 -16 -10z"/>
<path d="M6259 6770 c0 -3 -2 -13 -4 -22 -4 -20 10 -24 21 -7 3 6 1 16 -5 22
-6 6 -11 9 -12 7z"/>
<path d="M5711 6744 c0 -11 3 -14 6 -6 3 7 2 16 -1 19 -3 4 -6 -2 -5 -13z"/>
<path d="M6589 6747 c6 -8 9 -16 6 -19 -3 -2 2 -5 10 -5 13 0 13 3 -2 19 -19
21 -31 25 -14 5z"/>
<path d="M5988 6703 c7 -3 16 -2 19 1 4 3 -2 6 -13 5 -11 0 -14 -3 -6 -6z"/>
<path d="M6650 6686 c0 -2 8 -10 18 -17 15 -13 16 -12 3 4 -13 16 -21 21 -21
13z"/>
<path d="M4573 6023 c26 -2 67 -2 90 0 23 2 2 3 -48 3 -49 0 -68 -1 -42 -3z"/>
<path d="M4463 6013 c9 -2 25 -2 35 0 9 3 1 5 -18 5 -19 0 -27 -2 -17 -5z"/>
<path d="M4765 6009 c143 -20 326 -96 454 -186 162 -116 431 -439 431 -518 0
-55 -65 -115 -123 -115 -35 0 -69 30 -130 119 -130 185 -274 319 -422 392
-226 111 -500 107 -740 -10 -224 -110 -377 -296 -436 -531 -18 -72 -21 -103
-16 -215 8 -190 55 -316 162 -433 45 -50 163 -138 172 -128 2 2 15 46 29 97
55 208 119 335 219 436 54 54 81 74 115 83 80 21 153 -10 200 -84 33 -54 41
-92 41 -196 0 -166 -60 -338 -156 -447 -56 -63 -99 -91 -194 -123 l-74 -25
-18 -90 c-40 -200 -102 -335 -222 -483 -86 -107 -334 -358 -365 -371 -24 -10
-36 -10 -63 2 -45 19 -302 267 -323 312 -41 85 45 188 134 160 12 -4 68 -51
124 -106 l103 -98 106 113 c114 122 142 163 55 81 l-53 -50 49 52 c27 29 53
50 57 47 13 -7 66 66 103 142 30 60 59 156 90 294 5 22 0 27 -42 44 -107 44
-240 153 -318 262 -102 143 -153 303 -165 519 l-7 140 3 -145 c4 -177 24 -263
94 -405 81 -163 214 -300 361 -371 30 -15 56 -28 58 -29 4 -3 -28 -148 -33
-154 -3 -2 -4 13 -3 35 2 21 7 42 13 46 5 4 7 10 3 13 -3 4 -15 -2 -26 -13
-11 -11 -23 -17 -27 -14 -3 4 1 -7 9 -23 14 -26 13 -30 -2 -41 -15 -12 -15
-13 6 -14 23 0 27 -12 11 -45 -8 -17 -8 -15 -4 8 4 18 1 27 -8 27 -8 0 -12
-11 -11 -30 1 -16 -2 -27 -7 -24 -5 3 -6 11 -3 17 5 8 3 8 -7 0 -16 -15 -33
-17 -24 -3 3 6 2 10 -3 10 -10 0 -22 -23 -22 -41 0 -6 4 -7 10 -4 6 4 7 -1 3
-11 -5 -13 -3 -15 7 -9 8 5 11 4 6 -3 -4 -6 -13 -9 -20 -6 -14 5 -30 -22 -21
-36 3 -4 -5 -6 -17 -2 -14 3 -19 1 -14 -6 5 -8 2 -10 -8 -6 -9 3 -13 11 -9 17
3 6 1 7 -5 3 -7 -4 -12 -14 -12 -22 0 -8 4 -13 8 -10 5 3 9 -1 9 -9 0 -8 -3
-12 -7 -10 -4 2 -18 -7 -30 -20 -13 -14 -19 -25 -13 -25 22 0 22 -30 0 -40
-20 -10 -21 -10 -4 3 10 9 14 18 9 21 -14 8 -43 -4 -36 -15 3 -5 -3 -6 -12 -2
-13 5 -16 3 -11 -10 4 -11 1 -17 -7 -17 -8 0 -13 8 -12 17 0 10 -7 19 -17 21
-16 3 -18 0 -12 -18 5 -14 3 -20 -3 -16 -6 3 -12 1 -14 -6 -7 -20 -38 -1 -32
19 5 17 5 17 -6 0 -13 -20 -6 -52 10 -42 5 3 10 1 10 -4 0 -6 -5 -11 -11 -11
-8 0 -7 -6 2 -17 13 -15 12 -15 -8 -3 -12 8 -19 18 -16 23 3 5 -4 6 -16 2 -16
-5 -20 -3 -15 9 3 9 11 13 16 10 6 -4 9 -1 7 5 -3 7 -8 12 -12 12 -4 -1 -20
-1 -37 -1 -24 0 -29 -4 -27 -19 1 -11 -2 -20 -8 -21 -5 -1 -15 -6 -21 -11 -7
-5 -23 1 -44 16 -19 14 -30 25 -26 25 4 0 22 -10 39 -22 25 -18 29 -19 24 -5
-7 20 4 22 21 5 9 -9 12 -9 12 0 0 7 -5 12 -11 12 -5 0 -8 4 -5 9 7 10 -152 7
-178 -4 -15 -7 -17 -5 -11 6 8 12 6 12 -8 0 -10 -8 -16 -16 -13 -18 2 -3 -7
-21 -20 -40 -13 -20 -24 -52 -25 -72 -1 -33 -2 -34 -9 -11 -4 14 -8 19 -9 12
-2 -20 -29 -44 -36 -32 -10 16 -19 12 -32 -15 -6 -14 -7 -23 -3 -20 5 3 11 1
15 -5 3 -5 3 -10 -2 -11 -4 0 -21 -3 -38 -5 l-29 -5 19 22 c11 12 14 19 8 15
-8 -4 -13 -2 -13 5 0 7 -6 4 -14 -7 -10 -13 -11 -23 -4 -31 7 -9 5 -15 -7 -19
-13 -5 -14 -9 -3 -15 9 -6 5 -9 -13 -9 -36 0 -53 -20 -31 -36 9 -8 12 -14 5
-14 -6 0 -15 5 -18 10 -9 15 -25 12 -19 -4 3 -8 0 -17 -6 -21 -6 -3 -10 -3 -9
2 4 22 -3 34 -18 31 -13 -2 -17 3 -15 17 2 15 1 17 -7 6 -5 -8 -7 -20 -4 -28
3 -8 0 -13 -8 -11 -9 2 -14 -5 -13 -19 1 -13 -3 -20 -7 -17 -5 3 -9 17 -9 32
0 21 -3 23 -10 12 -5 -8 -12 -12 -15 -8 -4 3 3 14 14 25 19 18 19 19 1 19 -10
0 -17 -4 -14 -7 2 -4 0 -10 -5 -13 -5 -4 -12 2 -14 11 -4 17 -5 17 -6 1 0 -10
-6 -18 -12 -18 -5 0 -8 4 -4 9 3 5 1 12 -5 16 -5 3 -10 12 -10 18 0 8 3 8 9
-1 7 -11 9 -10 15 3 3 9 11 13 17 9 7 -4 9 -3 6 3 -4 6 -18 8 -31 6 l-25 -5
-3 -237 c-2 -130 0 -247 4 -261 3 -14 7 -18 8 -10 1 9 5 6 11 -8 5 -13 6 -28
3 -33 -8 -13 56 -110 67 -103 5 3 8 0 7 -8 -2 -7 3 -12 9 -11 7 2 12 -2 10 -9
-3 -15 96 -75 143 -88 39 -10 305 -12 2075 -14 1004 -1 1207 1 1240 13 108 38
203 129 247 238 23 58 23 60 26 586 2 462 1 527 -12 527 -8 0 -77 -21 -153
-46 -194 -64 -391 -162 -563 -279 -142 -98 -146 -99 -211 -103 -51 -3 -75 0
-107 16 -36 17 -43 18 -53 5 -26 -30 -88 -53 -146 -53 -96 0 -197 56 -370 207
-40 35 -80 63 -89 63 -24 0 -45 -14 -181 -117 -147 -111 -265 -173 -331 -173
-37 0 -50 6 -78 34 -65 65 -38 152 56 180 66 20 111 47 270 165 176 131 236
152 341 116 44 -15 63 -29 244 -180 50 -41 91 -71 92 -67 2 4 17 99 33 212 26
170 32 245 36 440 3 163 1 229 -6 215 -7 -14 -9 3 -4 62 3 52 1 83 -5 88 -6 3
-11 14 -10 23 0 14 2 14 10 -3 7 -15 8 -12 4 15 -3 24 0 43 10 55 15 20 15 20
8 0 -7 -21 -5 -21 17 9 8 11 10 17 3 13 -6 -4 -14 -3 -18 3 -3 5 1 10 9 10 9
0 16 5 16 10 0 6 11 20 25 32 14 12 25 26 25 32 0 5 -7 1 -15 -10 -15 -19 -15
-19 -30 1 -10 12 -12 21 -5 23 5 2 7 8 4 13 -3 6 -11 6 -20 -2 -7 -6 -11 -16
-8 -21 4 -6 -2 -6 -13 1 -11 6 -23 8 -25 5 -3 -2 -3 7 -1 21 3 14 9 25 14 25
5 0 8 -3 8 -7 -4 -27 1 -35 16 -23 21 18 19 24 -15 37 -16 6 -29 8 -28 5 0 -4
-1 -16 -2 -27 -2 -13 -5 -7 -10 15 -7 31 -7 32 -9 8 -1 -27 -21 -41 -21 -15 0
7 -9 23 -19 34 -11 12 -17 24 -14 27 4 3 1 6 -5 6 -18 0 -14 -27 4 -34 8 -3
12 -11 8 -17 -4 -8 -3 -9 4 -5 7 4 12 3 12 -3 0 -5 -9 -13 -21 -16 -16 -5 -20
-13 -16 -31 2 -13 1 -25 -2 -25 -42 -8 -81 -4 -86 8 -4 12 -8 13 -20 3 -8 -7
-12 -16 -9 -21 8 -13 -10 -11 -25 4 -11 10 -13 10 -7 0 4 -7 2 -13 -3 -13 -19
0 -26 -2 -44 -11 -9 -6 -17 -6 -16 -2 4 22 -2 25 -15 7 -17 -22 -2 -38 24 -24
12 6 16 4 17 -11 1 -10 -3 -19 -8 -19 -6 0 -7 5 -3 11 4 7 2 9 -7 5 -8 -3 -22
-9 -32 -12 -12 -4 -17 -13 -14 -25 6 -21 -8 -26 -16 -6 -4 10 -6 10 -6 0 -1
-7 -6 -13 -12 -13 -5 0 -7 5 -4 11 4 6 -3 5 -15 -3 -18 -10 -24 -10 -27 0 -5
14 -23 17 -23 3 0 -14 55 -30 71 -21 8 5 21 5 28 1 10 -6 9 -10 -4 -15 -9 -3
-14 -10 -10 -15 3 -5 1 -12 -4 -16 -6 -3 -8 3 -6 15 2 11 0 20 -6 20 -5 0 -9
-4 -9 -10 0 -5 -5 -10 -11 -10 -5 0 -7 5 -4 10 3 6 -1 10 -9 10 -24 0 -28 -18
-6 -25 11 -3 20 -11 20 -16 0 -5 -9 -4 -20 3 -15 10 -22 10 -28 1 -6 -10 -44
-11 -82 -2 -10 3 -14 -2 -12 -13 2 -10 -2 -18 -8 -18 -6 0 -8 -5 -4 -12 4 -7
3 -8 -4 -4 -7 4 -12 2 -12 -4 0 -6 -5 -8 -12 -4 -9 5 -9 2 1 -9 7 -9 11 -18 7
-18 -23 -5 -32 -3 -44 11 -10 13 -11 12 -5 -4 4 -13 3 -17 -5 -12 -6 3 -13 2
-17 -3 -3 -6 -13 -7 -21 -4 -13 5 -13 8 -2 15 9 7 7 8 -9 5 -18 -4 -23 -1 -24
16 -1 18 -2 19 -6 4 -3 -10 1 -25 9 -34 9 -12 9 -15 1 -9 -10 5 -13 -2 -13
-28 0 -19 6 -37 13 -39 7 -3 5 -6 -5 -6 -16 -1 -18 9 -18 69 0 140 -44 242
-125 287 -162 92 -365 -112 -471 -472 -13 -44 -24 -90 -24 -102 0 -13 -4 -23
-8 -23 -21 0 -103 63 -153 117 -69 75 -100 128 -136 229 -25 73 -27 91 -28
234 0 145 2 160 29 235 77 218 213 369 421 471 117 57 237 84 375 84 231 0
403 -74 583 -252 109 -108 210 -238 165 -212 -10 5 -10 4 -1 -6 6 -7 9 -19 6
-28 -4 -10 -2 -13 5 -8 6 3 13 2 17 -4 4 -6 11 -7 17 -4 6 4 8 -2 3 -17 -4
-15 -3 -19 3 -11 6 10 13 8 28 -9 46 -51 98 -55 160 -14 13 8 24 12 24 9 0 -4
8 0 18 9 10 10 21 15 24 12 3 -3 4 16 1 42 -3 36 -15 65 -50 118 -126 192
-309 384 -446 469 -132 83 -345 158 -436 155 -26 -1 -20 -4 24 -10z m635 -729
c6 -11 8 -20 6 -20 -3 0 -10 9 -16 20 -6 11 -8 20 -6 20 3 0 10 -9 16 -20z
m270 -9 c0 -5 -9 -19 -20 -32 l-20 -24 17 32 c19 34 23 39 23 24z m-270 -242
c0 -5 4 -8 8 -5 4 2 9 -7 10 -20 1 -15 -2 -23 -8 -19 -6 4 -8 10 -5 15 3 4 -2
10 -10 14 -17 6 -21 26 -5 26 6 0 10 -5 10 -11z m-100 -75 c0 -2 -9 0 -20 6
-11 6 -20 13 -20 16 0 2 9 0 20 -6 11 -6 20 -13 20 -16z m224 11 c-4 -8 -11
-15 -16 -15 -6 0 -5 6 2 15 7 8 14 15 16 15 2 0 1 -7 -2 -15z m-274 -55 c-6
-11 -13 -20 -16 -20 -2 0 0 9 6 20 6 11 13 20 16 20 2 0 0 -9 -6 -20z m-90
-34 c0 -3 -4 -8 -10 -11 -5 -3 -10 -1 -10 4 0 6 5 11 10 11 6 0 10 -2 10 -4z
m307 -128 c-2 -13 -4 -5 -4 17 -1 22 1 32 4 23 2 -10 2 -28 0 -40z m-507 -24
c0 -2 -9 0 -20 6 -11 6 -20 13 -20 16 0 2 9 0 20 -6 11 -6 20 -13 20 -16z
m-110 -39 c10 -14 10 -17 1 -8 -7 6 -19 9 -26 7 -7 -3 -16 0 -21 7 -4 7 -3 10
4 5 6 -3 14 -1 17 5 4 5 8 9 9 7 1 -2 8 -12 16 -23z m-120 -115 l-11 -25 6 25
c2 14 5 34 6 45 2 19 2 19 6 0 2 -12 -1 -32 -7 -45z m-69 -193 c-10 -9 -11 -8
-5 6 3 10 9 15 12 12 3 -3 0 -11 -7 -18z m-331 -261 c0 -3 -4 -8 -10 -11 -5
-3 -10 -1 -10 4 0 6 5 11 10 11 6 0 10 -2 10 -4z m-23 -58 c-3 -8 -6 -5 -6 6
-1 11 2 17 5 13 3 -3 4 -12 1 -19z m-20 -100 c-3 -8 -6 -5 -6 6 -1 11 2 17 5
13 3 -3 4 -12 1 -19z m-302 -90 c-3 -8 -12 -15 -20 -15 -12 0 -11 4 3 17 20
20 25 19 17 -2z m-35 -28 c3 -1 8 -2 13 -1 11 2 -30 -76 -45 -85 -8 -5 -7 0 2
11 12 14 12 19 2 23 -10 3 -10 7 -1 18 9 11 9 17 0 28 -10 12 -9 14 6 11 10
-2 20 -4 23 -5z m-53 -45 c0 -8 -4 -12 -9 -9 -5 3 -6 10 -3 15 9 13 12 11 12
-6z m-37 -29 c0 -2 -9 -6 -20 -9 -11 -3 -18 -1 -14 4 5 9 34 13 34 5z m50 -30
c0 -2 -8 -10 -17 -17 -16 -13 -17 -12 -4 4 13 16 21 21 21 13z m-180 -86 c0
-5 -4 -10 -10 -10 -5 0 -10 5 -10 10 0 6 5 10 10 10 6 0 10 -4 10 -10z m-140
-30 c0 -5 -2 -10 -4 -10 -3 0 -8 5 -11 10 -3 6 -1 10 4 10 6 0 11 -4 11 -10z
m-5 -60 c27 -27 47 -50 44 -50 -3 0 -27 23 -54 50 -27 28 -47 50 -44 50 3 0
27 -22 54 -50z m145 -23 c0 -2 -12 -14 -27 -28 l-28 -24 24 28 c23 25 31 32
31 24z m-69 -54 c13 -16 12 -17 -3 -4 -10 7 -18 15 -18 17 0 8 8 3 21 -13z
m-404 1 c-3 -3 -12 -4 -19 -1 -8 3 -5 6 6 6 11 1 17 -2 13 -5z m773 2 c0 -2
-8 -10 -17 -17 -16 -13 -17 -12 -4 4 13 16 21 21 21 13z m-705 -46 c10 -11 16
-20 13 -20 -3 0 -13 9 -23 20 -10 11 -16 20 -13 20 3 0 13 -9 23 -20z m-105
-7 c0 -2 -6 -3 -12 -2 -31 4 -46 -2 -51 -21 -3 -11 -11 -20 -17 -20 -10 0 -10
3 0 15 6 8 8 20 4 26 -4 7 -3 10 2 7 5 -3 18 -2 29 2 19 7 45 3 45 -7z m-120
-44 c0 -5 5 -7 12 -3 7 4 8 3 4 -5 -6 -9 -11 -9 -22 0 -17 14 -18 19 -4 19 6
0 10 -5 10 -11z m-203 -25 c-3 -3 -12 -4 -19 -1 -8 3 -5 6 6 6 11 1 17 -2 13
-5z m220 -31 c-9 -8 -47 -11 -47 -4 0 5 11 9 25 9 14 0 24 -2 22 -5z m-250
-365 c-3 -8 -6 -5 -6 6 -1 11 2 17 5 13 3 -3 4 -12 1 -19z m43 -108 c6 -11 8
-20 6 -20 -3 0 -10 9 -16 20 -6 11 -8 20 -6 20 3 0 10 -9 16 -20z"/>
<path d="M3935 3809 c-4 -6 -5 -12 -2 -15 2 -3 7 2 10 11 7 17 1 20 -8 4z"/>
<path d="M4408 6003 c6 -2 18 -2 25 0 6 3 1 5 -13 5 -14 0 -19 -2 -12 -5z"/>
<path d="M4368 5993 c7 -3 16 -2 19 1 4 3 -2 6 -13 5 -11 0 -14 -3 -6 -6z"/>
<path d="M4328 5983 c7 -3 16 -2 19 1 4 3 -2 6 -13 5 -11 0 -14 -3 -6 -6z"/>
<path d="M4220 5950 c-8 -5 -10 -10 -5 -10 6 0 17 5 25 10 8 5 11 10 5 10 -5
0 -17 -5 -25 -10z"/>
<path d="M4138 5914 c-27 -13 -48 -27 -48 -29 0 -5 99 42 109 51 13 11 -20 0
-61 -22z"/>
<path d="M4054 5864 c-18 -14 -18 -15 4 -4 12 6 22 13 22 15 0 8 -5 6 -26 -11z"/>
<path d="M3976 5815 c-25 -20 -46 -38 -46 -41 0 -5 63 41 95 68 26 23 -8 3
-49 -27z"/>
<path d="M3844 5698 c-60 -63 -136 -151 -93 -108 48 48 172 180 168 180 -2 0
-36 -33 -75 -72z"/>
<path d="M6282 5630 c0 -14 2 -19 5 -12 2 6 2 18 0 25 -3 6 -5 1 -5 -13z"/>
<path d="M3712 5543 c-26 -38 -34 -53 -29 -53 2 0 16 18 31 40 29 45 28 56 -2
13z"/>
<path d="M3644 5429 c-14 -28 -24 -53 -22 -55 2 -2 16 21 31 51 15 30 25 55
22 55 -3 0 -16 -23 -31 -51z"/>
<path d="M3606 5345 c-9 -26 -7 -32 5 -12 6 10 9 21 6 23 -2 3 -7 -2 -11 -11z"/>
<path d="M3566 5211 c-9 -38 -16 -80 -15 -93 0 -13 9 17 19 67 11 49 18 91 16
93 -2 2 -11 -28 -20 -67z"/>
<path d="M5656 5212 c-3 -5 1 -9 9 -9 8 0 12 4 9 9 -3 4 -7 8 -9 8 -2 0 -6 -4
-9 -8z"/>
<path d="M5436 5195 c4 -8 11 -15 16 -15 6 0 5 6 -2 15 -7 8 -14 15 -16 15 -2
0 -1 -7 2 -15z"/>
<path d="M5540 5156 c0 -2 7 -7 16 -10 8 -3 12 -2 9 4 -6 10 -25 14 -25 6z"/>
<path d="M5477 5129 c7 -7 15 -10 18 -7 3 3 -2 9 -12 12 -14 6 -15 5 -6 -5z"/>
<path d="M5720 5125 c0 -18 -5 -18 -31 -4 -18 9 -19 8 -10 -9 6 -11 7 -23 3
-27 -4 -5 8 2 26 14 18 12 30 27 27 32 -9 13 -15 11 -15 -6z"/>
<path d="M5273 5075 c0 -8 4 -15 9 -15 4 0 8 4 8 9 0 6 -4 12 -8 15 -5 3 -9
-1 -9 -9z"/>
<path d="M5314 5045 c0 -16 5 -23 18 -22 10 1 18 7 18 14 0 7 -8 17 -18 22
-15 8 -18 6 -18 -14z"/>
<path d="M5605 5041 c-3 -12 -11 -19 -16 -16 -5 4 -9 2 -9 -3 0 -6 7 -12 15
-16 8 -3 14 -2 13 2 -1 4 2 15 7 25 4 10 5 20 2 23 -3 3 -8 -4 -12 -15z"/>
<path d="M5633 5046 c3 -7 1 -19 -4 -25 -6 -8 -5 -8 3 -1 15 13 19 40 6 40 -6
0 -8 -6 -5 -14z"/>
<path d="M5253 5023 c-7 -3 -13 -10 -13 -16 0 -8 3 -8 11 0 6 6 18 9 25 6 8
-3 14 -1 14 4 0 10 -17 12 -37 6z"/>
<path d="M5540 5015 c-7 -9 -11 -17 -9 -20 3 -2 10 5 17 15 14 24 10 26 -8 5z"/>
<path d="M5296 5002 c-3 -5 1 -9 9 -9 8 0 15 4 15 9 0 4 -4 8 -9 8 -6 0 -12
-4 -15 -8z"/>
<path d="M5335 5000 c-3 -5 -1 -10 4 -10 6 0 11 5 11 10 0 6 -2 10 -4 10 -3 0
-8 -4 -11 -10z"/>
<path d="M5569 4973 c-13 -16 -12 -17 4 -4 9 7 17 15 17 17 0 8 -8 3 -21 -13z"/>
<path d="M4891 4806 c-1 -12 -6 -16 -16 -13 -8 4 -17 1 -21 -6 -4 -7 -4 -9 1
-5 4 4 14 3 21 -3 10 -9 15 -7 20 5 3 8 4 21 1 28 -3 8 -6 6 -6 -6z"/>
<path d="M4478 4710 c-44 -66 -139 -323 -124 -338 12 -12 67 44 90 91 30 61
58 185 54 236 l-3 36 -17 -25z m-8 -129 c-16 -72 -42 -129 -74 -166 -14 -16
-26 -26 -26 -22 0 22 45 159 74 222 25 57 32 65 35 45 1 -14 -2 -49 -9 -79z"/>
<path d="M4013 4143 c12 -3 16 -10 12 -24 -4 -10 -2 -19 3 -19 5 0 12 9 15 19
5 19 -11 32 -36 30 -7 -1 -4 -3 6 -6z"/>
<path d="M2842 3940 c0 -14 2 -19 5 -12 2 6 2 18 0 25 -3 6 -5 1 -5 -13z"/>
<path d="M2844 3795 c0 -66 1 -92 3 -57 2 34 2 88 0 120 -2 31 -3 3 -3 -63z"/>
<path d="M3676 3752 c-3 -4 4 -9 15 -9 23 -2 25 3 4 10 -8 4 -16 3 -19 -1z"/>
<path d="M3750 3749 c0 -4 -3 -16 -7 -26 -7 -17 -6 -17 11 0 10 9 22 15 27 12
5 -4 9 0 9 7 0 8 -9 14 -20 14 -11 0 -20 -3 -20 -7z"/>
<path d="M3675 3710 c3 -5 8 -10 11 -10 2 0 4 5 4 10 0 6 -5 10 -11 10 -5 0
-7 -4 -4 -10z"/>
<path d="M2844 3325 c0 -176 2 -247 3 -157 2 90 2 234 0 320 -1 86 -3 13 -3
-163z"/>
<path d="M2862 3480 c0 -19 2 -27 5 -17 2 9 2 25 0 35 -3 9 -5 1 -5 -18z"/>
<path d="M3061 3434 c0 -11 3 -14 6 -6 3 7 2 16 -1 19 -3 4 -6 -2 -5 -13z"/>
<path d="M2988 3430 c27 -12 32 -12 32 -3 0 4 -12 8 -27 10 -26 2 -27 2 -5 -7z"/>
<path d="M3035 3409 c-10 -15 3 -25 16 -12 7 7 7 13 1 17 -6 3 -14 1 -17 -5z"/>
</g>
</svg>
